<mxfile host="app.diagrams.net" agent="Mozilla/5.0 (X11; Linux x86_64) AppleWebKit/537.36 (KHTML, like Gecko) Chrome/130.0.0.0 Safari/537.36" version="25.0.1">
  <diagram id="CveNoNUf0CGThfszIA-8" name="Страница — 1">
    <mxGraphModel dx="1368" dy="788" grid="1" gridSize="10" guides="1" tooltips="1" connect="1" arrows="1" fold="1" page="1" pageScale="1" pageWidth="827" pageHeight="1169" math="0" shadow="0">
      <root>
        <mxCell id="0" />
        <mxCell id="1" parent="0" />
        <mxCell id="_LojwVjPKe4OjfMMHTwD-25" style="edgeStyle=orthogonalEdgeStyle;rounded=1;orthogonalLoop=1;jettySize=auto;html=1;entryX=0;entryY=0.5;entryDx=0;entryDy=0;" parent="1" source="_LojwVjPKe4OjfMMHTwD-1" target="_LojwVjPKe4OjfMMHTwD-12" edge="1">
          <mxGeometry relative="1" as="geometry" />
        </mxCell>
        <mxCell id="_LojwVjPKe4OjfMMHTwD-26" value="&lt;span style=&quot;font-size: 14px;&quot;&gt;Договор&lt;/span&gt;" style="edgeLabel;html=1;align=center;verticalAlign=middle;resizable=0;points=[];rounded=1;" parent="_LojwVjPKe4OjfMMHTwD-25" vertex="1" connectable="0">
          <mxGeometry x="0.0087" y="-1" relative="1" as="geometry">
            <mxPoint as="offset" />
          </mxGeometry>
        </mxCell>
        <mxCell id="_LojwVjPKe4OjfMMHTwD-1" value="&lt;font style=&quot;font-size: 14px;&quot;&gt;Клиент&lt;/font&gt;" style="shape=umlActor;verticalLabelPosition=bottom;verticalAlign=top;html=1;outlineConnect=0;strokeWidth=2;rounded=1;" parent="1" vertex="1">
          <mxGeometry x="40" y="400" width="70" height="120" as="geometry" />
        </mxCell>
        <mxCell id="_LojwVjPKe4OjfMMHTwD-3" value="&lt;font style=&quot;font-size: 14px;&quot;&gt;Выбор тарифа&lt;/font&gt;" style="swimlane;fontStyle=0;childLayout=stackLayout;horizontal=1;startSize=50;horizontalStack=0;resizeParent=1;resizeParentMax=0;resizeLast=0;collapsible=1;marginBottom=0;whiteSpace=wrap;html=1;rounded=1;" parent="1" vertex="1">
          <mxGeometry x="200" y="80" width="190" height="200" as="geometry">
            <mxRectangle x="240" y="60" width="210" height="50" as="alternateBounds" />
          </mxGeometry>
        </mxCell>
        <mxCell id="_LojwVjPKe4OjfMMHTwD-4" value="&lt;div style=&quot;text-align: justify;&quot;&gt;&lt;span style=&quot;font-size: 14px; background-color: initial;&quot;&gt;И: юристы компании&lt;/span&gt;&lt;/div&gt;" style="text;strokeColor=default;fillColor=none;align=left;verticalAlign=middle;spacingLeft=4;spacingRight=4;overflow=hidden;points=[[0,0.5],[1,0.5]];portConstraint=eastwest;rotatable=0;whiteSpace=wrap;html=1;rounded=1;" parent="_LojwVjPKe4OjfMMHTwD-3" vertex="1">
          <mxGeometry y="50" width="190" height="50" as="geometry" />
        </mxCell>
        <mxCell id="_LojwVjPKe4OjfMMHTwD-5" value="&lt;font style=&quot;font-size: 14px;&quot; face=&quot;Helvetica&quot;&gt;&lt;font style=&quot;font-size: 14px;&quot;&gt;СД:&amp;nbsp;&lt;/font&gt;&lt;span style=&quot;background-color: transparent; text-align: justify; text-indent: 0cm;&quot;&gt;сайт компании&lt;/span&gt;&lt;/font&gt;" style="text;strokeColor=default;fillColor=none;align=left;verticalAlign=middle;spacingLeft=4;spacingRight=4;overflow=hidden;points=[[0,0.5],[1,0.5]];portConstraint=eastwest;rotatable=0;whiteSpace=wrap;html=1;rounded=1;" parent="_LojwVjPKe4OjfMMHTwD-3" vertex="1">
          <mxGeometry y="100" width="190" height="100" as="geometry" />
        </mxCell>
        <mxCell id="_LojwVjPKe4OjfMMHTwD-27" style="edgeStyle=orthogonalEdgeStyle;rounded=1;orthogonalLoop=1;jettySize=auto;html=1;exitX=0;exitY=0.3333333333333333;exitDx=0;exitDy=0;exitPerimeter=0;entryX=1;entryY=0.5;entryDx=0;entryDy=0;" parent="1" source="_LojwVjPKe4OjfMMHTwD-6" target="_LojwVjPKe4OjfMMHTwD-12" edge="1">
          <mxGeometry relative="1" as="geometry" />
        </mxCell>
        <mxCell id="_LojwVjPKe4OjfMMHTwD-29" value="&lt;span style=&quot;font-size: 14px;&quot;&gt;договор&lt;/span&gt;" style="edgeLabel;html=1;align=center;verticalAlign=middle;resizable=0;points=[];rounded=1;" parent="_LojwVjPKe4OjfMMHTwD-27" vertex="1" connectable="0">
          <mxGeometry x="-0.0521" y="-2" relative="1" as="geometry">
            <mxPoint as="offset" />
          </mxGeometry>
        </mxCell>
        <mxCell id="qplPMbI5AZeBIYRTUS5X-1" style="edgeStyle=orthogonalEdgeStyle;rounded=1;orthogonalLoop=1;jettySize=auto;html=1;entryX=1;entryY=0.25;entryDx=0;entryDy=0;" edge="1" parent="1" source="_LojwVjPKe4OjfMMHTwD-6" target="_LojwVjPKe4OjfMMHTwD-3">
          <mxGeometry relative="1" as="geometry">
            <Array as="points">
              <mxPoint x="1020" y="420" />
              <mxPoint x="1020" y="40" />
              <mxPoint x="450" y="40" />
              <mxPoint x="450" y="130" />
            </Array>
          </mxGeometry>
        </mxCell>
        <mxCell id="qplPMbI5AZeBIYRTUS5X-2" value="Утверждённый тариф" style="edgeLabel;html=1;align=center;verticalAlign=middle;resizable=0;points=[];rounded=1;" vertex="1" connectable="0" parent="qplPMbI5AZeBIYRTUS5X-1">
          <mxGeometry x="0.3603" relative="1" as="geometry">
            <mxPoint as="offset" />
          </mxGeometry>
        </mxCell>
        <mxCell id="_LojwVjPKe4OjfMMHTwD-6" value="&lt;font style=&quot;font-size: 14px;&quot;&gt;Юристы компании&lt;/font&gt;" style="shape=umlActor;verticalLabelPosition=bottom;verticalAlign=top;html=1;outlineConnect=0;strokeWidth=2;rounded=1;" parent="1" vertex="1">
          <mxGeometry x="840" y="360" width="70" height="120" as="geometry" />
        </mxCell>
        <mxCell id="_LojwVjPKe4OjfMMHTwD-7" style="edgeStyle=orthogonalEdgeStyle;rounded=1;orthogonalLoop=1;jettySize=auto;html=1;exitX=0;exitY=0.5;exitDx=0;exitDy=0;entryX=0.5;entryY=0;entryDx=0;entryDy=0;entryPerimeter=0;" parent="1" source="_LojwVjPKe4OjfMMHTwD-3" target="_LojwVjPKe4OjfMMHTwD-1" edge="1">
          <mxGeometry relative="1" as="geometry" />
        </mxCell>
        <mxCell id="_LojwVjPKe4OjfMMHTwD-8" value="&lt;span style=&quot;font-size: 14px;&quot;&gt;Список тарифов&lt;/span&gt;" style="edgeLabel;html=1;align=center;verticalAlign=middle;resizable=0;points=[];rounded=1;" parent="_LojwVjPKe4OjfMMHTwD-7" vertex="1" connectable="0">
          <mxGeometry x="0.4038" relative="1" as="geometry">
            <mxPoint y="-55" as="offset" />
          </mxGeometry>
        </mxCell>
        <mxCell id="_LojwVjPKe4OjfMMHTwD-9" style="edgeStyle=orthogonalEdgeStyle;rounded=1;orthogonalLoop=1;jettySize=auto;html=1;exitX=1;exitY=0.3333333333333333;exitDx=0;exitDy=0;exitPerimeter=0;entryX=-0.016;entryY=0.57;entryDx=0;entryDy=0;entryPerimeter=0;" parent="1" source="_LojwVjPKe4OjfMMHTwD-1" target="_LojwVjPKe4OjfMMHTwD-5" edge="1">
          <mxGeometry relative="1" as="geometry">
            <Array as="points">
              <mxPoint x="180" y="440" />
              <mxPoint x="180" y="237" />
            </Array>
          </mxGeometry>
        </mxCell>
        <mxCell id="_LojwVjPKe4OjfMMHTwD-10" value="&lt;span style=&quot;font-size: 14px;&quot;&gt;Информация о&lt;/span&gt;&lt;div&gt;&lt;span style=&quot;font-size: 14px;&quot;&gt;выбранном&lt;/span&gt;&lt;/div&gt;&lt;div&gt;&lt;span style=&quot;font-size: 14px;&quot;&gt;тарифе&lt;/span&gt;&lt;/div&gt;" style="edgeLabel;html=1;align=center;verticalAlign=middle;resizable=0;points=[];rounded=1;" parent="_LojwVjPKe4OjfMMHTwD-9" vertex="1" connectable="0">
          <mxGeometry x="-0.0379" y="2" relative="1" as="geometry">
            <mxPoint y="-6" as="offset" />
          </mxGeometry>
        </mxCell>
        <mxCell id="qplPMbI5AZeBIYRTUS5X-11" style="edgeStyle=orthogonalEdgeStyle;rounded=1;orthogonalLoop=1;jettySize=auto;html=1;exitX=0;exitY=0.5;exitDx=0;exitDy=0;" edge="1" parent="1" source="_LojwVjPKe4OjfMMHTwD-11">
          <mxGeometry relative="1" as="geometry">
            <mxPoint x="120" y="520" as="targetPoint" />
            <Array as="points">
              <mxPoint x="150" y="535" />
              <mxPoint x="150" y="521" />
            </Array>
          </mxGeometry>
        </mxCell>
        <mxCell id="qplPMbI5AZeBIYRTUS5X-12" value="&lt;font style=&quot;font-size: 14px;&quot;&gt;финальный договор&lt;/font&gt;" style="edgeLabel;html=1;align=center;verticalAlign=middle;resizable=0;points=[];rounded=1;" vertex="1" connectable="0" parent="qplPMbI5AZeBIYRTUS5X-11">
          <mxGeometry x="-0.0341" y="2" relative="1" as="geometry">
            <mxPoint as="offset" />
          </mxGeometry>
        </mxCell>
        <mxCell id="_LojwVjPKe4OjfMMHTwD-11" value="&lt;font style=&quot;font-size: 14px;&quot;&gt;Оформление и подписание договора на оказание выбранной услуги&lt;/font&gt;" style="swimlane;fontStyle=0;childLayout=stackLayout;horizontal=1;startSize=60;horizontalStack=0;resizeParent=1;resizeParentMax=0;resizeLast=0;collapsible=1;marginBottom=0;whiteSpace=wrap;html=1;rounded=1;" parent="1" vertex="1">
          <mxGeometry x="400" y="430" width="190" height="210" as="geometry">
            <mxRectangle x="240" y="60" width="210" height="50" as="alternateBounds" />
          </mxGeometry>
        </mxCell>
        <mxCell id="_LojwVjPKe4OjfMMHTwD-12" value="&lt;font style=&quot;font-size: 14px;&quot; face=&quot;Helvetica&quot;&gt;&lt;font style=&quot;font-size: 14px;&quot;&gt;И:&lt;/font&gt;&lt;span style=&quot;background-color: transparent; text-align: justify; text-indent: 0cm;&quot;&gt;&amp;nbsp;юристы компании&lt;/span&gt;&lt;/font&gt;" style="text;strokeColor=default;fillColor=none;align=left;verticalAlign=middle;spacingLeft=4;spacingRight=4;overflow=hidden;points=[[0,0.5],[1,0.5]];portConstraint=eastwest;rotatable=0;whiteSpace=wrap;html=1;rounded=1;" parent="_LojwVjPKe4OjfMMHTwD-11" vertex="1">
          <mxGeometry y="60" width="190" height="50" as="geometry" />
        </mxCell>
        <mxCell id="_LojwVjPKe4OjfMMHTwD-13" value="&lt;div style=&quot;text-align: justify;&quot;&gt;&lt;span style=&quot;font-size: 14px; background-color: initial;&quot;&gt;СД: текстовые редакторы&lt;/span&gt;&lt;/div&gt;" style="text;strokeColor=default;fillColor=none;align=left;verticalAlign=middle;spacingLeft=4;spacingRight=4;overflow=hidden;points=[[0,0.5],[1,0.5]];portConstraint=eastwest;rotatable=0;whiteSpace=wrap;html=1;rounded=1;" parent="_LojwVjPKe4OjfMMHTwD-11" vertex="1">
          <mxGeometry y="110" width="190" height="100" as="geometry" />
        </mxCell>
        <mxCell id="_LojwVjPKe4OjfMMHTwD-14" style="edgeStyle=orthogonalEdgeStyle;rounded=1;orthogonalLoop=1;jettySize=auto;html=1;exitX=1;exitY=0.5;exitDx=0;exitDy=0;entryX=0.5;entryY=0;entryDx=0;entryDy=0;" parent="1" source="_LojwVjPKe4OjfMMHTwD-5" target="_LojwVjPKe4OjfMMHTwD-11" edge="1">
          <mxGeometry relative="1" as="geometry" />
        </mxCell>
        <mxCell id="_LojwVjPKe4OjfMMHTwD-16" value="&lt;span style=&quot;font-size: 14px;&quot;&gt;Договор на&lt;/span&gt;&lt;div&gt;&lt;span style=&quot;font-size: 14px;&quot;&gt;выбранную услугу&lt;/span&gt;&lt;/div&gt;" style="edgeLabel;html=1;align=center;verticalAlign=middle;resizable=0;points=[];rounded=1;" parent="_LojwVjPKe4OjfMMHTwD-14" vertex="1" connectable="0">
          <mxGeometry x="0.6612" y="-1" relative="1" as="geometry">
            <mxPoint x="6" y="-8" as="offset" />
          </mxGeometry>
        </mxCell>
        <mxCell id="_LojwVjPKe4OjfMMHTwD-17" style="edgeStyle=orthogonalEdgeStyle;rounded=1;orthogonalLoop=1;jettySize=auto;html=1;entryX=1.005;entryY=0.41;entryDx=0;entryDy=0;entryPerimeter=0;" parent="1" source="_LojwVjPKe4OjfMMHTwD-6" target="_LojwVjPKe4OjfMMHTwD-13" edge="1">
          <mxGeometry relative="1" as="geometry">
            <Array as="points">
              <mxPoint x="790" y="420" />
              <mxPoint x="790" y="580" />
            </Array>
          </mxGeometry>
        </mxCell>
        <mxCell id="_LojwVjPKe4OjfMMHTwD-18" value="&lt;span style=&quot;font-size: 14px;&quot;&gt;Контроль за процессом&lt;/span&gt;&lt;div&gt;&lt;span style=&quot;font-size: 14px;&quot;&gt;подписания договора&lt;/span&gt;&lt;/div&gt;" style="edgeLabel;html=1;align=center;verticalAlign=middle;resizable=0;points=[];rounded=1;" parent="_LojwVjPKe4OjfMMHTwD-17" vertex="1" connectable="0">
          <mxGeometry x="0.484" y="-5" relative="1" as="geometry">
            <mxPoint x="10" as="offset" />
          </mxGeometry>
        </mxCell>
        <mxCell id="_LojwVjPKe4OjfMMHTwD-30" value="&lt;font style=&quot;font-size: 14px;&quot;&gt;Оплата услуги&lt;/font&gt;" style="swimlane;fontStyle=0;childLayout=stackLayout;horizontal=1;startSize=60;horizontalStack=0;resizeParent=1;resizeParentMax=0;resizeLast=0;collapsible=1;marginBottom=0;whiteSpace=wrap;html=1;rounded=1;" parent="1" vertex="1">
          <mxGeometry x="240" y="710" width="190" height="210" as="geometry">
            <mxRectangle x="240" y="60" width="210" height="50" as="alternateBounds" />
          </mxGeometry>
        </mxCell>
        <mxCell id="qplPMbI5AZeBIYRTUS5X-3" style="edgeStyle=orthogonalEdgeStyle;rounded=1;orthogonalLoop=1;jettySize=auto;html=1;" edge="1" parent="_LojwVjPKe4OjfMMHTwD-30" source="_LojwVjPKe4OjfMMHTwD-31">
          <mxGeometry relative="1" as="geometry">
            <mxPoint x="420" y="90" as="targetPoint" />
          </mxGeometry>
        </mxCell>
        <mxCell id="qplPMbI5AZeBIYRTUS5X-4" value="&lt;font style=&quot;font-size: 14px;&quot;&gt;Оформленный тариф&lt;/font&gt;" style="edgeLabel;html=1;align=center;verticalAlign=middle;resizable=0;points=[];rounded=1;" vertex="1" connectable="0" parent="qplPMbI5AZeBIYRTUS5X-3">
          <mxGeometry x="0.1253" relative="1" as="geometry">
            <mxPoint x="-7" y="-5" as="offset" />
          </mxGeometry>
        </mxCell>
        <mxCell id="_LojwVjPKe4OjfMMHTwD-31" value="&lt;div style=&quot;text-align: justify;&quot;&gt;&lt;span style=&quot;font-size: 14px; background-color: initial;&quot;&gt;И: банк партнёр&lt;/span&gt;&lt;/div&gt;" style="text;strokeColor=default;fillColor=none;align=left;verticalAlign=middle;spacingLeft=4;spacingRight=4;overflow=hidden;points=[[0,0.5],[1,0.5]];portConstraint=eastwest;rotatable=0;whiteSpace=wrap;html=1;rounded=1;" parent="_LojwVjPKe4OjfMMHTwD-30" vertex="1">
          <mxGeometry y="60" width="190" height="50" as="geometry" />
        </mxCell>
        <mxCell id="_LojwVjPKe4OjfMMHTwD-32" value="&lt;div style=&quot;&quot;&gt;&lt;span style=&quot;font-size: 14px; background-color: initial;&quot;&gt;СД: сайт компании, платёжный сервис&lt;/span&gt;&lt;/div&gt;" style="text;strokeColor=default;fillColor=none;align=left;verticalAlign=middle;spacingLeft=4;spacingRight=4;overflow=hidden;points=[[0,0.5],[1,0.5]];portConstraint=eastwest;rotatable=0;whiteSpace=wrap;html=1;rounded=1;" parent="_LojwVjPKe4OjfMMHTwD-30" vertex="1">
          <mxGeometry y="110" width="190" height="100" as="geometry" />
        </mxCell>
        <mxCell id="_LojwVjPKe4OjfMMHTwD-33" style="edgeStyle=orthogonalEdgeStyle;rounded=1;orthogonalLoop=1;jettySize=auto;html=1;exitX=0;exitY=1;exitDx=0;exitDy=0;exitPerimeter=0;entryX=-0.005;entryY=0.64;entryDx=0;entryDy=0;entryPerimeter=0;" parent="1" source="_LojwVjPKe4OjfMMHTwD-1" target="_LojwVjPKe4OjfMMHTwD-31" edge="1">
          <mxGeometry relative="1" as="geometry" />
        </mxCell>
        <mxCell id="_LojwVjPKe4OjfMMHTwD-35" value="&lt;span style=&quot;font-size: 14px;&quot;&gt;деньги&lt;/span&gt;" style="edgeLabel;html=1;align=center;verticalAlign=middle;resizable=0;points=[];rounded=1;" parent="_LojwVjPKe4OjfMMHTwD-33" vertex="1" connectable="0">
          <mxGeometry x="-0.2427" y="-2" relative="1" as="geometry">
            <mxPoint x="82" y="97" as="offset" />
          </mxGeometry>
        </mxCell>
        <mxCell id="_LojwVjPKe4OjfMMHTwD-36" style="edgeStyle=orthogonalEdgeStyle;rounded=1;orthogonalLoop=1;jettySize=auto;html=1;entryX=1;entryY=1;entryDx=0;entryDy=0;entryPerimeter=0;" parent="1" source="_LojwVjPKe4OjfMMHTwD-13" target="_LojwVjPKe4OjfMMHTwD-1" edge="1">
          <mxGeometry relative="1" as="geometry" />
        </mxCell>
        <mxCell id="_LojwVjPKe4OjfMMHTwD-38" value="&lt;span style=&quot;font-size: 14px;&quot;&gt;Ссылка на оплату услуги&lt;/span&gt;" style="edgeLabel;html=1;align=center;verticalAlign=middle;resizable=0;points=[];rounded=1;" parent="_LojwVjPKe4OjfMMHTwD-36" vertex="1" connectable="0">
          <mxGeometry x="-0.1333" y="1" relative="1" as="geometry">
            <mxPoint as="offset" />
          </mxGeometry>
        </mxCell>
        <mxCell id="qplPMbI5AZeBIYRTUS5X-10" value="&lt;font style=&quot;font-size: 14px;&quot;&gt;АСУТ&lt;/font&gt;" style="shape=umlActor;verticalLabelPosition=bottom;verticalAlign=top;html=1;outlineConnect=0;strokeWidth=2;rounded=1;" vertex="1" parent="1">
          <mxGeometry x="670" y="730" width="70" height="120" as="geometry" />
        </mxCell>
      </root>
    </mxGraphModel>
  </diagram>
</mxfile>
